<svg width="70" height="62" viewBox="0 0 70 62" fill="none" xmlns="http://www.w3.org/2000/svg">
<g clip-path="url(#clip0_4_65)">
<path d="M2.11988 21.1249C2.67845 20.0277 3.22434 18.7539 3.75752 17.3161C5.53482 18.3377 7.6041 19.1322 9.96536 19.7124C12.3266 20.2925 14.5228 20.57 16.554 20.57C18.5852 20.57 20.1086 20.3934 20.9592 20.0277C21.8098 19.6619 22.2414 19.271 22.2414 18.8548C22.2414 17.3287 19.9055 16.572 15.2465 16.572C10.1304 16.572 6.41077 16.0423 4.11298 14.9829C1.8025 13.9235 0.64726 12.2083 0.64726 9.83727C0.634565 6.46989 2.04371 3.98535 4.84929 2.39626C7.66757 0.794548 11.311 0 15.805 0C18.4075 0 21.0861 0.327909 23.841 0.996339C26.5831 1.65216 29.0586 2.56021 31.2675 3.70789C30.5439 5.34744 29.7695 7.36534 28.9697 9.72376C28.8174 10.2282 28.6904 10.594 28.5889 10.8462C27.3067 9.82466 25.377 8.96705 22.8 8.28601C20.2102 7.60496 17.9378 7.25183 15.9574 7.25183C13.5707 7.25183 11.9712 7.40317 11.146 7.71847C10.3208 8.03377 9.90189 8.48779 9.90189 9.08055C9.90189 9.67331 10.4732 10.1526 11.6157 10.5183C12.7582 10.8841 14.4086 11.0606 16.5667 11.0606C21.8859 11.0606 25.7452 11.666 28.1572 12.8767C30.5693 14.0875 31.7753 15.9414 31.7753 18.426C31.7753 21.9194 30.4931 24.4292 27.9414 25.9552C25.3897 27.4813 21.5051 28.2506 16.3128 28.2506C13.5326 28.2506 10.689 27.9479 7.80722 27.3299C4.92546 26.712 2.32299 25.8291 0.0125122 24.6562C0.863074 23.3824 1.57399 22.1969 2.13257 21.0997L2.11988 21.1249Z" fill="white"/>
<path d="M58.3968 8.18511C55.4135 8.03377 53.2046 7.94549 51.77 7.92026V20.7087C53.23 20.6835 55.4262 20.5952 58.3968 20.4439V27.8849H36.5361V20.4439C39.4178 20.5952 41.6141 20.6835 43.1248 20.7087V7.92026C41.6141 7.94549 39.4178 8.03377 36.5361 8.18511V0.744102H58.3968V8.18511Z" fill="white"/>
<path d="M35.1777 30.319L38.1103 57.4597H28.3605L27.7639 38.1005L24.0062 57.4597H14.1422L10.3083 38.2392L9.74973 57.4597H0L2.93254 30.319H15.7291L19.0044 48.0008L21.8607 30.319H35.1777Z" fill="white"/>
<path d="M68.2481 46.273V48.026H66.4835H64.7316H62.967H61.2151H59.4505V49.7665V51.5195V53.26H61.2151V55.013V56.7535H62.967V58.5065V60.2469H61.2151H59.4505H57.6986V58.5065H55.934V56.7535V55.013H54.1821V53.26V51.5195H52.4175V53.26H50.6656V55.013H48.901V56.7535H47.1364V58.5065H45.3845V56.7535V55.013V53.26V51.5195V49.7665V48.026V46.273V44.5325V42.7795V41.0391V39.286V37.5456V35.7925V34.0521V32.299V30.5586V28.8055V27.0651V25.312H47.1364V27.0651H48.901V28.8055H50.6656V30.5586H52.4175V32.299H54.1821V34.0521H55.934V35.7925H57.6986V37.5456H59.4505V39.286H61.2151V41.0391H62.967V42.7795H64.7316V44.5325H66.4835V46.273H68.2481Z" fill="white"/>
<path d="M68.2481 46.273V48.026H66.4835H64.7316H62.967H61.2151H59.4505V49.7665V51.5195V53.26H61.2151V51.5195V49.7665H62.967H64.7316H66.4835H68.2481H70V48.026V46.273H68.2481Z" fill="#040000"/>
<path d="M68.2481 44.5325H66.4835V46.273H68.2481V44.5325Z" fill="#040000"/>
<path d="M66.4835 42.7795H64.7316V44.5326H66.4835V42.7795Z" fill="#040000"/>
<path d="M62.967 60.2469H64.7316V58.5065V56.7535H62.967V58.5065V60.2469Z" fill="#040000"/>
<path d="M64.7316 41.0391H62.967V42.7921H64.7316V41.0391Z" fill="#040000"/>
<path d="M61.2151 56.7535H62.967V55.013V53.26H61.2151V55.013V56.7535Z" fill="#040000"/>
<path d="M62.9797 39.286H61.2151V41.0264H62.9797V39.286Z" fill="#040000"/>
<path d="M59.4505 60.2469H57.6986V58.5065H55.934V60.2469V62H57.6986H59.4505H61.2151H62.967V60.2469H61.2151H59.4505Z" fill="#040000"/>
<path d="M61.2024 37.5456H59.4505V39.2986H61.2024V37.5456Z" fill="#040000"/>
<path d="M59.4632 35.7925H57.6986V37.533H59.4632V35.7925Z" fill="#040000"/>
<path d="M57.6859 34.0521H55.934V35.8051H57.6859V34.0521Z" fill="#040000"/>
<path d="M55.934 55.013H54.1821V56.7535V58.5065H55.934V56.7535V55.013Z" fill="#040000"/>
<path d="M55.9467 32.299H54.1821V34.0521H55.9467V32.299Z" fill="#040000"/>
<path d="M54.1821 51.5195H52.4175V53.26H50.6656V55.013H52.4175H54.1821V53.26V51.5195Z" fill="#040000"/>
<path d="M54.1821 30.5586H52.4175V32.299H54.1821V30.5586Z" fill="#040000"/>
<path d="M52.4175 28.8055H50.6656V30.5586H52.4175V28.8055Z" fill="#040000"/>
<path d="M50.6656 55.013H48.901V56.7535H50.6656V55.013Z" fill="#040000"/>
<path d="M50.6656 27.0651H48.901V28.8181H50.6656V27.0651Z" fill="#040000"/>
<path d="M48.901 56.7535H47.1364V58.5065H48.901V56.7535Z" fill="#040000"/>
<path d="M48.901 25.312H47.1364V27.0525H48.901V25.312Z" fill="#040000"/>
<path d="M45.3845 56.7535V55.013V53.26V51.5195V49.7665V48.026V46.273V44.5325V42.7795V41.0391V39.286V37.5456V35.7925V34.0521V32.299V30.5586V28.8055V27.0651V25.312H47.1364V23.5716H45.3845H43.6199V25.312V27.0651V28.8055V30.5586V32.299V34.0521V35.7925V37.5456V39.286V41.0391V42.7795V44.5325V46.273V48.026V49.7665V51.5195V53.26V55.013V56.7535V58.5065V60.2469H45.3845H47.1364V58.5065H45.3845V56.7535Z" fill="#040000"/>
</g>
<defs>
<clipPath id="clip0_4_65">
<rect width="70" height="62" fill="white"/>
</clipPath>
</defs>
</svg>
